<?xml version="1.0" encoding="utf-8"?>
<!-- Generator: Adobe Illustrator 17.0.0, SVG Export Plug-In . SVG Version: 6.00 Build 0)  -->
<!DOCTYPE svg PUBLIC "-//W3C//DTD SVG 1.1//EN" "http://www.w3.org/Graphics/SVG/1.1/DTD/svg11.dtd">
<svg version="1.1" id="Capa_1" xmlns="http://www.w3.org/2000/svg" xmlns:xlink="http://www.w3.org/1999/xlink" x="0px" y="0px"
	 width="500px" height="500px" viewBox="0 0 500 500" enable-background="new 0 0 500 500" xml:space="preserve">
<path fill="#111224" d="M239.383,284.92c-0.559-0.198-2.611-0.407-3.948-1.495c-4.653-3.788-8.199-2.129-12.457,1.087
	c-15.805,11.942-32.024,23.338-47.785,35.335c-4.77,3.631-5.359-0.887-7.428-2.675c-2.167-1.872-3.203-3.403-0.257-6.178
	c15.365-14.471,30.393-29.301,45.672-43.865c2.225-2.121,2.728-3.777,1.782-6.808c-5.075-16.259,1.631-33.682,16.011-42.44
	c14.501-8.833,33.052-6.766,45.136,5.03c12.195,11.903,14.826,30.205,6.468,44.983C274.321,282.489,256.983,289.651,239.383,284.92z
	"/>
<g>
	<line fill="none" x1="500" y1="0" x2="0" y2="500"/>
	<line fill="none" x1="500" y1="500" x2="0" y2="0"/>
</g>
</svg>
