<?xml version="1.0" encoding="utf-8"?>
<!-- Generator: Adobe Illustrator 17.0.0, SVG Export Plug-In . SVG Version: 6.00 Build 0)  -->
<!DOCTYPE svg PUBLIC "-//W3C//DTD SVG 1.1//EN" "http://www.w3.org/Graphics/SVG/1.1/DTD/svg11.dtd">
<svg version="1.1" id="Capa_1" xmlns="http://www.w3.org/2000/svg" xmlns:xlink="http://www.w3.org/1999/xlink" x="0px" y="0px"
	 width="500px" height="500px" viewBox="0 0 500 500" enable-background="new 0 0 500 500" xml:space="preserve">
<g>
	<path fill="#38B4F9" d="M0.157,250.873c-1.216-24.311,3.145-49.485,10.695-74.171c2.001-6.543,0.392-6.906,8.157-3.835
		c31.838,12.594,63.65,25.256,95.546,37.699c3.743,1.46,4.996,2.639,3.856,7.078c-5.682,22.142-6.064,44.471-0.706,66.77
		c0.753,3.136-0.203,4.373-3.062,5.429c-32.891,12.15-65.76,24.359-98.569,36.733c-4.087,1.542-5.583,0.787-6.703-3.518
		C4.686,305.053-0.817,283.334,0.157,250.873z"/>
	<path fill="#8CC53E" d="M130.863,183.628c-0.875-0.393-1.781-0.787-2.677-1.203c-31.936-14.852-63.845-29.763-95.841-44.482
		c-3.648-1.678-4.569-2.898-2.409-6.801c25.096-45.363,60.46-79.979,106.11-104.02c2.936-1.546,3.891-0.765,5.045,1.915
		c14.073,32.676,28.186,65.334,42.438,97.93c1.321,3.021,0.623,4.245-1.986,5.808c-19.845,11.887-35.676,27.9-47.714,47.747
		C133.096,181.729,132.72,183.372,130.863,183.628z"/>
	<path fill="#05A46C" d="M250.027,0.069c26.049-0.707,51.33,3.745,76.152,11.424c3.243,1.003,4.431,1.862,2.909,5.712
		C316.432,49.221,304,81.328,291.653,113.467c-1.404,3.654-2.808,4.432-6.817,3.459c-22.235-5.397-44.558-5.409-66.729,0.529
		c-3.538,0.947-5.022,0.394-6.336-3.254c-11.842-32.869-23.856-65.676-35.974-98.443c-1.273-3.443-0.95-4.687,2.809-5.767
		C201.966,3.28,225.675-0.608,250.027,0.069z"/>
	<path fill="#FDC334" d="M474.156,139.553c-0.412,1.872-2.167,1.863-3.411,2.414c-22.83,10.111-45.678,20.181-68.524,30.256
		c-8.32,3.669-16.689,7.231-24.943,11.045c-2.664,1.231-4.033,1.218-5.733-1.687c-12.349-21.1-29.107-37.814-50.21-49.994
		c-2.432-1.403-2.651-2.548-1.523-4.998c14.609-31.713,29.144-63.46,43.594-95.247c1.264-2.78,2.332-3.264,5.089-1.722
		c19.603,10.97,37.616,23.974,53.842,39.703c20.214,19.596,37.163,41.514,50.045,66.623
		C472.986,137.125,473.552,138.324,474.156,139.553z"/>
	<path fill="#F05A26" d="M499.699,251.801c1.251,26.734-3.303,52.008-10.805,76.887c-1.159,3.842-2.4,4.446-6.109,2.96
		c-31.151-12.476-62.367-24.791-93.627-36.989c-3.268-1.275-4.101-2.502-3.132-6.069c6.423-23.639,6.461-47.387,0.307-71.098
		c-0.73-2.812-0.319-4.063,2.573-5.126c32.117-11.806,64.206-23.689,96.217-35.784c3.637-1.374,4.153,0.26,4.898,2.891
		C496.773,203.315,501.075,227.485,499.699,251.801z"/>
	<path fill="#E23024" d="M370.607,314.909c0.875,0.393,1.781,0.787,2.677,1.203c31.936,14.852,63.845,29.763,95.841,44.482
		c3.648,1.678,4.569,2.898,2.409,6.801c-25.096,45.363-60.461,79.979-106.11,104.02c-2.936,1.546-3.891,0.765-5.045-1.915
		c-14.073-32.676-28.186-65.334-42.438-97.93c-1.321-3.021-0.623-4.245,1.986-5.808c19.845-11.887,35.676-27.9,47.714-47.747
		C368.374,316.807,368.75,315.165,370.607,314.909z"/>
	<path fill="#0C23C6" d="M25.329,358.984c0.412-1.872,2.167-1.863,3.411-2.414c22.83-10.111,45.678-20.181,68.524-30.256
		c8.32-3.669,16.689-7.231,24.943-11.045c2.664-1.231,4.033-1.218,5.732,1.687c12.349,21.1,29.107,37.814,50.21,49.994
		c2.432,1.403,2.651,2.548,1.523,4.998c-14.609,31.713-29.144,63.46-43.594,95.247c-1.264,2.78-2.332,3.264-5.089,1.722
		c-19.603-10.97-37.616-23.974-53.842-39.703c-20.214-19.596-37.163-41.514-50.045-66.623
		C26.498,361.412,25.932,360.213,25.329,358.984z"/>
</g>
<ellipse fill="none" cx="250" cy="250.157" rx="250" ry="249.462"/>
</svg>
